<svg version="1.2" xmlns="http://www.w3.org/2000/svg" viewBox="0 0 1500 500" width="1500" height="500">
<path id="trust" fill="#ffffff" aria-label="trust"  d="m206.4 389.2q0-9.4-3.8-18-3.5-8.6-9.9-15.1-6.5-6.4-15-9.8-8.6-3.9-18.1-3.9-26.6 0-46.4-18.9-18.8-19.8-18.8-46.4v-167.9q0-9.4-3.9-18-3.4-8.6-9.9-15-6.4-6.5-15-9.9-8.6-3.9-18.1-3.9-9.8 0-18.4 3.9-8.2 3.4-14.6 9.9-6 6.4-9.9 15-3.4 8.6-3.4 18v167.9q0 66.2 46.3 112.5 46.4 46.4 112.1 46.4 9.5 0 18.1-3.4 8.5-3.9 15-10.3 6.4-6.5 9.9-14.6 3.8-8.6 3.8-18.5zm-93.2-224.1q0 19.3 13.8 33 13.7 13.8 32.6 13.8 9.5 0 18.1-3.5 8.5-3.8 15-10.3 6.4-6.4 9.9-14.6 3.8-8.6 3.8-18.4 0-9.5-3.8-18.1-3.5-8.6-9.9-15-6.5-6.4-15-9.9-8.6-3.8-18.1-3.8-9.9 0-18.4 3.8-8.2 3.5-14.6 9.9-6.1 6.4-9.9 15-3.5 8.6-3.5 18.1zm444.3 0q0-9.5-3.9-18.1-3.4-8.6-9.8-15-6.5-6.4-15.1-9.9-8.6-3.8-18-3.8h-112.1q-65.2 0-112.1 46.8-46.3 46.3-46.3 112v112.1q0 19.3 13.7 33.1 13.8 13.7 32.6 13.7 9.9 0 18.5-3.4 8.6-3.9 14.6-9.9 6.5-6.5 9.9-15 3.9-8.6 3.9-18.5v-112.1q0-27 18.8-45.9 19.4-19.3 46.4-19.3h112.1q9.4 0 18-3.5 8.6-3.8 15.1-10.3 6.4-6.4 9.8-14.6 3.9-8.6 3.9-18.4zm352 112v-112q0-9.5-3.9-18.1-3.4-8.6-9.8-15-6.5-6.4-15.1-9.9-8.6-3.8-18-3.8-9.9 0-18.5 3.8-8.1 3.5-14.6 9.9-6 6.4-9.8 15-3.5 8.6-3.5 18.1v112q0 27.9-19.3 46.4-19.8 18.9-46.4 18.9-26.6 0-46.4-18.9-18.8-19.8-18.8-46.4v-112q0-9.5-3.9-18.1-3.4-8.6-9.9-15-6.4-6.4-15-9.9-8.6-3.8-18.1-3.8-9.8 0-18.4 3.8-8.2 3.5-14.6 9.9-6 6.4-9.9 15-3.4 8.6-3.4 18.1v112q0 66.2 46.3 112.5 46.4 46.4 112.1 46.4 65.7 0 112.1-46.4 46.8-46.8 46.8-112.5z"/>
	<path id="trust" fill="#ffffff" aria-label="trust"  d="m1261.5 277.1q0-9.4-3.9-18-3.4-8.6-9.8-15-6.5-6.5-15.1-9.9-8.6-3.9-18-3.9-9.9 0-18.5 3.9-8.1 3.4-14.6 9.9-6 6.4-9.8 15-3.5 8.6-3.5 18 0 27.9-19.3 46.4-19.8 18.9-46.4 18.9h-112.1q-9.8 0-18.4 3.9-8.2 3.4-14.6 9.8-6 6.5-9.9 15.1-3.4 8.6-3.4 18 0 19.3 13.7 33.1 13.8 13.7 32.6 13.7h112.1q65.7 0 112.1-46.4 46.8-46.8 46.8-112.5zm-317.3 0q0 19.3 13.7 33.1 13.8 13.7 32.6 13.7 9.9 0 18.5-3.4 8.6-3.9 14.6-9.9 6.5-6.4 9.9-15 3.9-8.6 3.9-18.5 0-27 18.8-45.9 19.4-19.3 46.4-19.3h112.1q9.4 0 18-3.5 8.6-3.8 15.1-10.3 6.4-6.4 9.8-14.6 3.9-8.6 3.9-18.4 0-9.5-3.9-18.1-3.4-8.6-9.8-15-6.5-6.4-15.1-9.9-8.6-3.8-18-3.8h-112.1q-65.2 0-112.1 46.8-46.3 46.3-46.3 112zm158.4-46.8q-9.9 0-18.4 3.9-8.2 3.4-14.6 9.9-6.1 6.4-9.9 15-3.5 8.6-3.5 18 0 19.3 13.8 33.1 13.7 13.7 32.6 13.7 9.5 0 18.1-3.4 8.5-3.9 15-10.3 6.4-6.5 9.9-14.6 3.8-8.6 3.8-18.5 0-9.4-3.8-18-3.5-8.6-9.9-15-6.5-6.5-15-9.9-8.6-3.9-18.1-3.9zm397.8 158.9q0-9.4-3.8-18-3.5-8.6-9.9-15.1-6.5-6.4-15-9.8-8.6-3.9-18.1-3.9-26.6 0-46.4-18.9-18.8-19.8-18.8-46.4v-167.9q0-9.4-3.9-18-3.4-8.6-9.9-15-6.4-6.5-15-9.9-8.6-3.9-18.1-3.9-9.8 0-18.4 3.9-8.2 3.4-14.6 9.9-6 6.4-9.9 15-3.4 8.6-3.4 18v167.9q0 66.2 46.3 112.5 46.4 46.4 112.1 46.4 9.5 0 18.1-3.4 8.5-3.9 15-10.3 6.4-6.5 9.9-14.6 3.8-8.6 3.8-18.5zm-93.2-224.1q0 19.3 13.8 33 13.7 13.8 32.6 13.8 9.5 0 18.1-3.5 8.5-3.8 15-10.3 6.4-6.4 9.9-14.6 3.8-8.6 3.8-18.4 0-9.5-3.8-18.1-3.5-8.6-9.9-15-6.5-6.4-15-9.9-8.6-3.8-18.1-3.8-9.9 0-18.4 3.8-8.2 3.5-14.6 9.9-6.1 6.4-9.9 15-3.5 8.6-3.5 18.1z"/>
</svg>
